<svg width="67" height="27" viewBox="0 0 67 27" fill="none" xmlns="http://www.w3.org/2000/svg">
<path d="M14.844 17.914C14.844 18.9113 14.606 19.7387 14.13 20.396C13.6767 21.0533 12.8833 21.8353 11.75 22.742C10.866 23.4447 9.83467 23.864 8.656 24C8.656 25.02 8.66733 25.632 8.69 25.836C8.69 26.0627 8.61067 26.2327 8.452 26.346C8.316 26.4593 8.13467 26.516 7.908 26.516C7.61333 26.516 7.34133 26.414 7.092 26.21C6.86533 26.0287 6.752 25.768 6.752 25.428C6.752 25.0427 6.72933 24.6007 6.684 24.102C6.18533 24.0793 5.72067 23.9887 5.29 23.83C4.85933 23.6713 4.49667 23.524 4.202 23.388C3.93 23.252 3.74867 23.1613 3.658 23.116C2.842 22.5493 2.23 22.096 1.822 21.756C1.414 21.3933 1.08533 20.9967 0.836 20.566C0.586667 20.1353 0.462 19.6253 0.462 19.036C0.462 18.4693 0.586667 18.084 0.836 17.88C1.08533 17.6533 1.53867 17.54 2.196 17.54C2.49067 17.54 2.774 17.6193 3.046 17.778C3.318 17.9367 3.522 18.1293 3.658 18.356C4.406 19.6933 5.36933 20.5207 6.548 20.838C6.548 20.702 6.57067 19.9427 6.616 18.56C6.66133 17.1773 6.69533 15.7833 6.718 14.378C5.426 13.9247 4.508 13.562 3.964 13.29C1.76533 12.202 0.666 10.6153 0.666 8.53C0.666 7.646 0.972 6.73933 1.584 5.81C2.196 4.88067 2.91 4.22333 3.726 3.838C4.04333 3.67933 4.49667 3.498 5.086 3.294C5.67533 3.09 6.242 2.92 6.786 2.784C6.786 2.14933 6.77467 1.68467 6.752 1.39C6.752 0.981999 6.854 0.698665 7.058 0.539998C7.262 0.358666 7.466 0.268 7.67 0.268C8.19133 0.268 8.50867 0.449333 8.622 0.811999C8.758 1.17467 8.81467 1.798 8.792 2.682C9.51733 2.75 10.322 3.022 11.206 3.498C12.226 4.08733 12.9627 4.60867 13.416 5.062C13.892 5.49267 14.13 6.048 14.13 6.728C14.13 7.11333 13.9713 7.43067 13.654 7.68C13.3367 7.92933 12.8153 8.054 12.09 8.054C11.7727 8.054 11.3647 7.73667 10.866 7.102C10.4127 6.60333 10.0613 6.29733 9.812 6.184C9.72133 6.16133 9.574 6.116 9.37 6.048C9.166 5.95733 8.962 5.88933 8.758 5.844C8.758 7.90667 8.73533 9.618 8.69 10.978V11.488C9.914 12.032 10.9227 12.5533 11.716 13.052C12.804 13.732 13.5973 14.412 14.096 15.092C14.5947 15.7493 14.844 16.69 14.844 17.914ZM4.1 8.36C4.1 8.81333 4.31533 9.244 4.746 9.652C5.17667 10.0373 5.67533 10.332 6.242 10.536L6.752 10.706V5.81C6.004 5.96867 5.36933 6.26333 4.848 6.694C4.34933 7.12467 4.1 7.68 4.1 8.36ZM8.622 20.804C9.438 20.5773 10.0953 20.192 10.594 19.648C11.0927 19.104 11.342 18.5487 11.342 17.982C11.342 16.9847 10.4467 16.078 8.656 15.262C8.63333 16.418 8.622 18.2653 8.622 20.804ZM26.8744 6.116C26.6478 10.5587 26.5344 14.0947 26.5344 16.724C26.5344 18.084 26.5684 19.376 26.6364 20.6C26.8178 20.736 27.1691 20.804 27.6904 20.804L28.4724 20.77C28.7898 20.7247 29.0844 20.702 29.3564 20.702C29.9458 20.702 30.3991 20.804 30.7164 21.008C31.0564 21.212 31.2264 21.6087 31.2264 22.198C31.2264 22.7647 31.0564 23.2067 30.7164 23.524C30.3991 23.8413 29.7304 24 28.7104 24C27.8491 24 26.8064 23.932 25.5824 23.796C25.2878 23.7733 25.0044 23.7507 24.7324 23.728C24.4604 23.7053 24.2111 23.694 23.9844 23.694C22.7378 23.7167 21.8084 23.762 21.1964 23.83C20.5844 23.898 19.8931 23.932 19.1224 23.932C18.4198 23.932 18.0684 23.3993 18.0684 22.334C18.0684 21.314 18.7258 20.804 20.0404 20.804C20.2444 20.804 20.5731 20.8267 21.0264 20.872C21.4118 20.94 21.8198 20.974 22.2504 20.974C22.4998 20.974 22.7038 20.9627 22.8624 20.94C22.8851 19.4213 22.9644 17.2113 23.1004 14.31C23.2364 10.91 23.3044 8.394 23.3044 6.762C23.1911 6.78467 22.7944 6.94333 22.1144 7.238C21.0718 7.75933 20.3011 8.02 19.8024 8.02C19.5304 8.02 19.2811 7.884 19.0544 7.612C18.8278 7.31733 18.7144 6.97733 18.7144 6.592C18.7144 6.20667 18.9524 5.83267 19.4284 5.47C19.9044 5.10733 20.6751 4.63133 21.7404 4.042C22.3298 3.74733 22.8964 3.41867 23.4404 3.056C23.5764 2.96533 23.7691 2.87467 24.0184 2.784C24.2904 2.69333 24.4944 2.648 24.6304 2.648C25.2198 2.648 25.7524 2.77267 26.2284 3.022C26.7271 3.24866 26.9764 3.55467 26.9764 3.94L26.8744 6.116ZM42.6459 6.116C42.4192 10.5587 42.3059 14.0947 42.3059 16.724C42.3059 18.084 42.3399 19.376 42.4079 20.6C42.5892 20.736 42.9406 20.804 43.4619 20.804L44.2439 20.77C44.5612 20.7247 44.8559 20.702 45.1279 20.702C45.7172 20.702 46.1706 20.804 46.4879 21.008C46.8279 21.212 46.9979 21.6087 46.9979 22.198C46.9979 22.7647 46.8279 23.2067 46.4879 23.524C46.1706 23.8413 45.5019 24 44.4819 24C43.6206 24 42.5779 23.932 41.3539 23.796C41.0592 23.7733 40.7759 23.7507 40.5039 23.728C40.2319 23.7053 39.9826 23.694 39.7559 23.694C38.5092 23.7167 37.5799 23.762 36.9679 23.83C36.3559 23.898 35.6646 23.932 34.8939 23.932C34.1912 23.932 33.8399 23.3993 33.8399 22.334C33.8399 21.314 34.4972 20.804 35.8119 20.804C36.0159 20.804 36.3446 20.8267 36.7979 20.872C37.1832 20.94 37.5912 20.974 38.0219 20.974C38.2712 20.974 38.4752 20.9627 38.6339 20.94C38.6566 19.4213 38.7359 17.2113 38.8719 14.31C39.0079 10.91 39.0759 8.394 39.0759 6.762C38.9626 6.78467 38.5659 6.94333 37.8859 7.238C36.8432 7.75933 36.0726 8.02 35.5739 8.02C35.3019 8.02 35.0526 7.884 34.8259 7.612C34.5992 7.31733 34.4859 6.97733 34.4859 6.592C34.4859 6.20667 34.7239 5.83267 35.1999 5.47C35.6759 5.10733 36.4466 4.63133 37.5119 4.042C38.1012 3.74733 38.6679 3.41867 39.2119 3.056C39.3479 2.96533 39.5406 2.87467 39.7899 2.784C40.0619 2.69333 40.2659 2.648 40.4019 2.648C40.9912 2.648 41.5239 2.77267 41.9999 3.022C42.4986 3.24866 42.7479 3.55467 42.7479 3.94L42.6459 6.116ZM64.4014 4.824C65.1494 5.98 65.7501 7.306 66.2034 8.802C66.6567 10.2753 66.8834 11.7827 66.8834 13.324C66.8834 15.16 66.5661 16.9053 65.9314 18.56C65.3194 20.2147 64.3901 21.5633 63.1434 22.606C61.9194 23.6487 60.4234 24.17 58.6554 24.17C57.0007 24.17 55.4821 23.7507 54.0994 22.912C52.7167 22.0507 51.6741 21.0533 50.9714 19.92C50.4501 19.0813 50.0534 18.1407 49.7814 17.098C49.5094 16.0327 49.3734 14.9673 49.3734 13.902C49.3734 12.0433 49.7587 10.23 50.5294 8.462C51.3227 6.694 52.4107 5.27733 53.7934 4.212C55.1081 3.23733 56.6154 2.75 58.3154 2.75C60.1967 2.75 62.2254 3.44133 64.4014 4.824ZM55.2894 7.17C55.0854 7.51 54.8814 7.816 54.6774 8.088C54.1787 8.836 53.8161 9.47067 53.5894 9.992C53.3627 10.4907 53.1587 11.2613 52.9774 12.304C52.8867 12.78 52.8414 13.3353 52.8414 13.97C52.8414 15.5793 53.1587 16.9733 53.7934 18.152C54.4507 19.308 55.3461 20.09 56.4794 20.498C57.0234 20.702 57.6354 20.804 58.3154 20.804C60.0154 20.804 61.2961 20.056 62.1574 18.56C63.0414 17.0413 63.4834 15.1713 63.4834 12.95C63.4834 10.8873 63.0981 9.19867 62.3274 7.884C61.5567 6.54667 60.3667 5.878 58.7574 5.878C58.1001 5.878 57.5334 5.98 57.0574 6.184C56.6041 6.388 56.0147 6.71667 55.2894 7.17Z" fill="black"/>
</svg>
