<svg width="36" height="36" viewBox="0 0 36 36" fill="none" xmlns="http://www.w3.org/2000/svg">
<path d="M36 27C36 28.0609 35.5786 29.0783 34.8284 29.8284C34.0783 30.5786 33.0609 31 32 31H4C2.93913 31 1.92172 30.5786 1.17157 29.8284C0.421427 29.0783 0 28.0609 0 27V9C0 7.93913 0.421427 6.92172 1.17157 6.17157C1.92172 5.42143 2.93913 5 4 5H32C33.0609 5 34.0783 5.42143 34.8284 6.17157C35.5786 6.92172 36 7.93913 36 9V27Z" fill="#006A4D"/>
<path d="M16 24.5C19.866 24.5 23 21.366 23 17.5C23 13.634 19.866 10.5 16 10.5C12.134 10.5 9 13.634 9 17.5C9 21.366 12.134 24.5 16 24.5Z" fill="#F42A41"/>
</svg>
