<svg width="187" height="23" viewBox="0 0 187 23" fill="none" xmlns="http://www.w3.org/2000/svg">
<path d="M9.728 3.792L8.096 3.768L6.752 4.224C6.704 4.224 6.544 4.48 6.272 4.992C6.16 5.248 6.024 5.528 5.864 5.832C5.72 6.136 5.616 6.328 5.552 6.408L5 10.008C4.968 10.008 4.856 10.28 4.664 10.824C4.584 11.096 4.504 11.32 4.424 11.496C4.344 11.656 4.28 11.784 4.232 11.88C4.232 11.992 4.384 12.296 4.688 12.792L5.264 12.456L5.792 13.488L5.48 14.088C5.528 14.168 5.568 14.24 5.6 14.304C5.632 14.352 5.664 14.4 5.696 14.448L5.768 14.592C5.768 14.64 5.864 14.768 6.056 14.976C6.232 15.2 6.376 15.312 6.488 15.312C6.664 15.312 6.792 15.28 6.872 15.216C6.968 15.152 7.04 15.12 7.088 15.12C7.136 15.12 7.192 15.152 7.256 15.216C7.32 15.264 7.376 15.296 7.424 15.312C8.176 15.408 8.832 15.24 9.392 14.808C9.568 14.776 9.8 14.744 10.088 14.712C10.376 14.68 10.616 14.56 10.808 14.352C10.872 14.336 10.952 14.288 11.048 14.208C11.144 14.128 11.248 14.04 11.36 13.944C11.472 13.832 11.592 13.72 11.72 13.608C11.848 13.496 11.984 13.4 12.128 13.32C12.208 13.272 12.272 13.312 12.32 13.44C12.384 13.568 12.448 13.616 12.512 13.584L12.752 13.872L12.344 15.096L11.432 15.816L10.136 16.176C9.736 16.304 9.304 16.44 8.84 16.584C8.392 16.728 8.064 16.816 7.856 16.848C7.68 16.864 7.488 16.904 7.28 16.968C7.072 17.016 6.872 17.072 6.68 17.136C6.488 17.184 6.32 17.232 6.176 17.28C6.032 17.312 5.944 17.328 5.912 17.328C5.304 17.328 4.864 17.336 4.592 17.352C4.32 17.352 4.12 17.352 3.992 17.352L1.832 15.768C1.8 15.464 1.56 14.984 1.112 14.328C0.68 13.736 0.464 13.368 0.464 13.224L0.68 11.256C0.728 10.92 0.768 10.576 0.8 10.224C0.832 9.856 0.856 9.52 0.872 9.216C0.888 8.912 0.896 8.648 0.896 8.424C0.912 8.2 0.92 8.064 0.92 8.016C1.048 7.952 1.232 7.8 1.472 7.56C1.712 7.304 1.928 6.952 2.12 6.504C2.52 5.672 2.664 4.936 2.552 4.296C2.632 4.264 2.856 4.208 3.224 4.128C3.592 4.048 3.968 3.928 4.352 3.768C4.736 3.624 5.032 3.512 5.24 3.432C5.448 3.352 5.568 3.304 5.6 3.288C5.616 3.272 5.68 3.248 5.792 3.216C5.92 3.184 6.056 3.16 6.2 3.144C6.36 3.112 6.512 3.088 6.656 3.072C6.8 3.04 6.904 3.024 6.968 3.024L7.712 2.304L9.872 2.28L10.4 2.616L10.256 3.384L9.728 3.792ZM26.1313 9C26.1793 9.272 26.2032 9.512 26.2032 9.72C26.2032 9.912 26.1953 10.104 26.1793 10.296C26.1793 10.472 26.1873 10.648 26.2032 10.824C26.2353 10.984 26.2993 11.16 26.3953 11.352C26.3633 11.416 26.2833 11.544 26.1553 11.736C26.0433 11.912 25.9633 12.096 25.9153 12.288C25.8833 12.464 25.8593 12.6 25.8433 12.696C25.8273 12.792 25.8113 12.856 25.7953 12.888C25.8433 12.92 25.8833 12.984 25.9153 13.08C25.9313 13.16 25.9153 13.264 25.8672 13.392C25.8193 13.504 25.7233 13.664 25.5793 13.872C25.2913 14.256 25.1313 14.584 25.0993 14.856C25.0673 15.112 25.0033 15.312 24.9073 15.456C24.8753 15.488 24.7713 15.536 24.5953 15.6C24.4353 15.664 24.2433 15.744 24.0193 15.84C23.7953 15.92 23.5713 16.016 23.3473 16.128C23.1233 16.24 22.9473 16.352 22.8193 16.464C22.5473 16.512 22.3073 16.576 22.0993 16.656C21.8913 16.736 21.6353 16.792 21.3313 16.824C21.0433 16.888 20.7473 16.968 20.4433 17.064C20.1393 17.144 19.9713 17.184 19.9393 17.184C19.1873 17.184 18.7393 17.208 18.5953 17.256C18.4673 17.304 18.3153 17.328 18.1393 17.328L15.9553 16.536L14.9473 15.072C14.9473 14.688 14.9313 14.368 14.8993 14.112C14.8833 13.84 14.8593 13.608 14.8273 13.416C14.7953 13.208 14.7713 13.016 14.7553 12.84C14.7393 12.664 14.7393 12.464 14.7553 12.24C14.8033 12.192 14.8753 12.08 14.9713 11.904C15.0673 11.712 15.1633 11.496 15.2593 11.256C15.3713 11.016 15.4753 10.768 15.5713 10.512C15.6833 10.256 15.7633 10.04 15.8113 9.864C15.9393 9.496 16.0353 9.176 16.0993 8.904C16.1633 8.616 16.2113 8.36 16.2433 8.136C16.3713 8.056 16.4753 7.968 16.5553 7.872C16.6353 7.776 16.7153 7.696 16.7953 7.632C17.4513 7.248 18.0193 6.936 18.4993 6.696C18.9793 6.44 19.4273 6.28 19.8433 6.216L20.5633 6.168C20.6433 6.184 20.7153 6.2 20.7793 6.216C20.8433 6.232 20.9073 6.248 20.9713 6.264C21.0673 6.296 21.1553 6.32 21.2353 6.336C21.3153 6.336 21.3633 6.336 21.3793 6.336L21.8593 7.08C21.8593 7.224 21.8273 7.344 21.7633 7.44C21.6993 7.52 21.7633 7.576 21.9553 7.608C22.1633 7.656 22.2753 7.688 22.2913 7.704V7.728C22.5473 7.728 22.8113 7.672 23.0833 7.56C23.3553 7.432 23.6273 7.368 23.8993 7.368C23.9633 7.368 24.0753 7.4 24.2353 7.464C24.3953 7.512 24.5633 7.576 24.7393 7.656C24.9153 7.736 25.0753 7.816 25.2193 7.896C25.3793 7.96 25.4913 8.008 25.5553 8.04C25.5233 8.28 25.5313 8.448 25.5793 8.544C25.6273 8.64 25.6913 8.712 25.7713 8.76C25.8513 8.792 25.9233 8.824 25.9873 8.856C26.0673 8.872 26.1153 8.92 26.1313 9ZM21.8353 15C22.0753 14.84 22.3073 14.328 22.5313 13.464C22.6593 13 22.7633 12.656 22.8433 12.432C22.9393 12.192 22.9873 11.968 22.9873 11.76C22.9873 11.408 22.8673 10.992 22.6273 10.512C22.4993 10.256 22.4033 10.04 22.3393 9.864C22.2753 9.688 22.2273 9.512 22.1953 9.336C22.0673 9.272 21.9953 9.176 21.9793 9.048C21.9793 8.904 21.9153 8.76 21.7873 8.616C21.6273 8.488 21.5313 8.44 21.4993 8.472C21.4673 8.504 21.4353 8.52 21.4033 8.52H21.1873C21.0593 8.52 20.8833 8.544 20.6593 8.592C20.4513 8.64 20.2833 8.752 20.1553 8.928C19.9633 9.136 19.7953 9.304 19.6513 9.432C19.5233 9.544 19.4513 9.616 19.4353 9.648C19.2753 9.952 19.1313 10.216 19.0033 10.44C18.8753 10.648 18.7713 10.816 18.6913 10.944L18.4753 11.448C18.3793 11.688 18.3393 12.008 18.3553 12.408C18.3873 12.472 18.4193 12.616 18.4513 12.84C18.4833 13.048 18.3873 13.272 18.1633 13.512C18.1153 13.56 18.0673 13.656 18.0193 13.8C17.9713 13.928 17.9393 14.08 17.9233 14.256C17.9073 14.432 17.9233 14.608 17.9713 14.784C18.0353 14.96 18.1553 15.112 18.3313 15.24C18.5553 15.4 18.7873 15.56 19.0273 15.72C19.2673 15.864 19.4193 15.936 19.4833 15.936H19.7473C19.8433 15.936 19.9313 15.96 20.0113 16.008L21.8353 15ZM32.0383 17.496C31.9903 17.496 31.8863 17.504 31.7263 17.52C31.5823 17.52 31.4223 17.528 31.2463 17.544C31.0703 17.544 30.9023 17.552 30.7423 17.568C30.5823 17.568 30.4703 17.568 30.4062 17.568L29.8783 17.616L29.4703 17.328C29.4543 17.088 29.4703 16.808 29.5183 16.488C29.5823 16.168 29.6143 15.92 29.6143 15.744C29.8063 15.744 29.8463 15.552 29.7343 15.168C29.6063 14.784 29.5583 14.48 29.5903 14.256C29.6063 14 29.6463 13.744 29.7103 13.488C29.7743 13.216 29.7823 13.04 29.7343 12.96C29.7023 12.864 29.6623 12.76 29.6143 12.648C29.5663 12.52 29.5263 12.376 29.4943 12.216L29.7823 10.656C29.7823 9.792 29.7903 9.128 29.8063 8.664C29.8383 8.2 29.8623 7.856 29.8783 7.632C29.9103 7.408 29.9423 7.272 29.9743 7.224C30.0223 7.16 30.0543 7.104 30.0703 7.056C30.1023 7.008 30.1183 6.928 30.1183 6.816C30.1343 6.704 30.1343 6.48 30.1183 6.144L30.6223 5.88C30.8943 5.896 31.2223 5.944 31.6063 6.024C32.0063 6.088 32.3903 6.16 32.7583 6.24C32.9503 6.272 33.1183 6.304 33.2623 6.336C33.4063 6.352 33.5343 6.376 33.6463 6.408L33.9823 6.864C33.6783 7.072 33.4783 7.208 33.3823 7.272C33.2863 7.336 33.2783 7.472 33.3583 7.68C33.6463 7.936 33.8943 8.016 34.1023 7.92C34.3263 7.824 34.4783 7.672 34.5583 7.464L36.1183 7.08H37.0303L37.4383 7.224C37.8223 7.352 38.2063 7.488 38.5903 7.632C38.9903 7.776 39.3183 7.888 39.5743 7.968L40.0063 9.024L39.9823 9.312C40.0143 9.776 40.0383 10.224 40.0543 10.656C40.0863 11.072 40.0863 11.584 40.0543 12.192C40.0383 12.576 40.0223 12.968 40.0063 13.368C39.9903 13.752 39.9743 14.12 39.9583 14.472C39.9583 14.824 39.9583 15.136 39.9583 15.408C39.9583 15.664 39.9583 15.856 39.9583 15.984C39.9583 16 39.9743 16.064 40.0063 16.176C40.0543 16.288 40.1183 16.408 40.1983 16.536L40.0303 16.8L39.5743 17.016C39.3503 17.032 39.0623 17.072 38.7103 17.136C38.3743 17.2 38.0943 17.232 37.8703 17.232C37.7743 17.232 37.6943 17.2 37.6303 17.136C37.5663 17.056 37.4223 17.024 37.1983 17.04L36.8623 16.752C36.8943 16.544 36.9023 16.376 36.8863 16.248C36.8703 16.104 36.8463 15.984 36.8143 15.888C36.7823 15.776 36.7503 15.68 36.7183 15.6C36.6863 15.52 36.6703 15.44 36.6703 15.36C36.6863 15.12 36.7103 14.856 36.7423 14.568C36.7743 14.344 36.8063 14.088 36.8383 13.8C36.8863 13.496 36.9423 13.2 37.0063 12.912C37.0383 12.736 37.0543 12.512 37.0543 12.24C37.0543 11.952 37.0543 11.672 37.0543 11.4C37.0543 11.112 37.0543 10.84 37.0543 10.584C37.0543 10.328 37.0623 10.136 37.0783 10.008L36.3823 8.784C36.3183 8.768 36.2543 8.752 36.1903 8.736C36.1263 8.72 36.0543 8.696 35.9743 8.664C35.8463 8.632 35.7183 8.64 35.5903 8.688C35.4783 8.736 35.3663 8.792 35.2543 8.856C35.1423 8.92 35.0383 8.984 34.9423 9.048C34.8463 9.112 34.7583 9.144 34.6783 9.144C34.6783 9.192 34.5903 9.152 34.4143 9.024C34.2543 8.88 34.1183 8.744 34.0063 8.616C33.7343 8.392 33.5343 8.352 33.4062 8.496C33.2943 8.624 33.1983 8.8 33.1183 9.024C33.1343 9.2 33.1583 9.32 33.1903 9.384C33.2383 9.448 33.2863 9.496 33.3343 9.528C33.3983 9.544 33.4543 9.544 33.5023 9.528C33.4223 9.592 33.3583 9.712 33.3103 9.888C33.2623 10.048 33.2223 10.232 33.1903 10.44C33.1743 10.632 33.1663 10.84 33.1663 11.064C33.1823 11.272 33.2063 11.464 33.2383 11.64C33.2703 11.832 33.2463 12.168 33.1663 12.648C33.1023 13.128 33.0863 13.68 33.1183 14.304C33.1183 14.544 33.1103 14.8 33.0943 15.072C33.0783 15.328 33.0623 15.584 33.0463 15.84C33.0303 16.08 33.0143 16.304 32.9983 16.512C32.9823 16.704 32.9743 16.856 32.9743 16.968V17.04C32.6703 17.296 32.3583 17.448 32.0383 17.496ZM52.2973 12.552C52.1373 12.664 51.9133 12.72 51.6253 12.72C51.4013 12.72 51.2093 12.72 51.0493 12.72C50.9053 12.72 50.7853 12.712 50.6893 12.696L50.0173 13.128C49.9693 13.144 49.8813 13.168 49.7533 13.2C49.6733 13.232 49.5693 13.264 49.4413 13.296C49.3293 13.328 49.1933 13.376 49.0333 13.44C48.7133 13.52 48.4173 13.624 48.1453 13.752C47.8893 13.88 47.6493 14.016 47.4253 14.16C47.3133 14.288 47.1773 14.368 47.0173 14.4C46.8573 14.416 46.7853 14.456 46.8013 14.52C46.7213 14.744 46.6573 14.944 46.6093 15.12C46.5613 15.296 46.5373 15.48 46.5373 15.672C46.5373 15.896 46.5373 16.096 46.5373 16.272C46.5373 16.448 46.5213 16.584 46.4893 16.68L49.2253 15.648C49.4013 15.68 49.5373 15.696 49.6333 15.696C49.7293 15.696 49.8173 15.696 49.8973 15.696C49.9773 15.712 50.0653 15.696 50.1613 15.648C50.2573 15.584 50.3933 15.512 50.5693 15.432L51.1213 15.456L52.6333 15.912L52.8733 16.248C52.9053 16.392 52.9693 16.6 53.0653 16.872C53.1773 17.128 53.2573 17.384 53.3053 17.64C53.3373 17.768 53.3693 17.912 53.4012 18.072C53.4493 18.248 53.5053 18.448 53.5693 18.672C53.6813 19.12 53.7773 19.368 53.8573 19.416L53.6413 20.04L53.8573 20.64L53.7373 21.096L52.4413 22.08C52.3773 22.064 52.3213 22.048 52.2733 22.032C52.2253 22.016 52.1773 22 52.1293 21.984C52.0493 21.952 51.9693 21.928 51.8893 21.912C51.8093 21.896 51.7453 21.888 51.6973 21.888L49.8253 22.752C49.7613 22.736 49.6893 22.72 49.6093 22.704C49.5453 22.704 49.4733 22.688 49.3933 22.656C49.2493 22.624 49.0573 22.584 48.8173 22.536C48.5933 22.504 48.3293 22.456 48.0253 22.392C47.7213 22.328 47.3693 22.264 46.9693 22.2C46.5853 22.136 46.2093 22.08 45.8413 22.032C45.4893 21.984 45.1613 21.952 44.8573 21.936C44.5693 21.92 44.3693 21.92 44.2573 21.936L43.1773 21.72L42.9613 21.528L42.5773 19.968L42.6973 19.488C43.0813 19.296 43.4093 19.024 43.6813 18.672C43.9533 18.336 44.1053 17.912 44.1373 17.4C44.1533 17.128 44.1613 16.904 44.1613 16.728C44.1613 16.552 44.1613 16.408 44.1613 16.296C44.1613 16.184 44.1533 16.096 44.1373 16.032C44.1373 15.968 44.1373 15.896 44.1373 15.816L44.3293 14.736L44.6893 14.424L44.8092 13.2C44.7613 13.136 44.6893 13.04 44.5933 12.912C44.5133 12.768 44.4173 12.616 44.3053 12.456C44.1933 12.296 44.0813 12.144 43.9693 12C43.8733 11.84 43.7853 11.704 43.7053 11.592L43.7773 10.344L44.8813 8.064L45.5053 7.152L47.8573 6.072L50.4253 7.104L51.0253 6.816C51.0733 6.816 51.1213 6.808 51.1693 6.792C51.2173 6.776 51.2813 6.768 51.3613 6.768C51.4413 6.752 51.5453 6.728 51.6733 6.696C51.9133 6.664 52.1213 6.576 52.2973 6.432C52.4733 6.288 52.6413 6.096 52.8013 5.856C52.9293 6.016 53.0493 6.16 53.1613 6.288C53.2733 6.416 53.3773 6.536 53.4733 6.648C53.5373 6.712 53.5933 6.776 53.6413 6.84C53.6893 6.888 53.7373 6.936 53.7853 6.984V8.232L53.5453 8.472L51.8653 8.832L52.0813 9.6L52.1533 10.704L52.5613 11.76L52.2973 12.552ZM46.6573 12.384L49.0573 11.808C49.1693 11.696 49.2493 11.528 49.2973 11.304C49.3613 11.064 49.2813 10.832 49.0573 10.608L48.4333 9.504L47.7133 8.064H46.8493L46.8013 8.928C46.3853 8.848 46.1133 9.04 45.9853 9.504C45.9053 9.744 45.8413 9.944 45.7933 10.104C45.7453 10.248 45.7133 10.376 45.6973 10.488L46.6573 12.384ZM46.1533 20.592L48.5773 20.928C49.4733 21.008 50.0573 21.008 50.3293 20.928C50.3453 20.848 50.3533 20.76 50.3533 20.664C50.3693 20.584 50.3693 20.504 50.3533 20.424C50.3533 20.264 50.2813 20.072 50.1373 19.848C49.9933 19.64 49.9213 19.432 49.9213 19.224C49.9213 19.144 49.9453 19.096 49.9933 19.08C50.0413 19.08 50.0493 19.04 50.0173 18.96C50.0013 18.896 49.9853 18.784 49.9693 18.624C49.9693 18.464 49.9613 18.296 49.9453 18.12C49.9293 17.944 49.9053 17.776 49.8733 17.616C49.8573 17.456 49.8253 17.352 49.7773 17.304C49.6813 17.336 49.5213 17.392 49.2973 17.472C49.0893 17.552 48.8573 17.632 48.6013 17.712C48.3613 17.792 48.1293 17.872 47.9053 17.952C47.6813 18.016 47.5213 18.056 47.4253 18.072C47.2813 18.36 47.0893 18.536 46.8493 18.6C46.6253 18.68 46.3773 18.784 46.1053 18.912C46.1533 19.04 46.1133 19.168 45.9853 19.296C45.8733 19.376 45.5773 19.52 45.0973 19.728C44.6013 19.952 44.3213 20.168 44.2573 20.376L46.1533 20.592ZM65.8323 6.72V7.824H65.2083L64.2963 8.544C63.5123 8.656 62.8723 8.816 62.3763 9.024C61.8803 9.216 61.6483 9.488 61.6803 9.84C61.6483 9.92 61.6323 10.016 61.6323 10.128C61.6323 10.224 61.6883 10.272 61.8003 10.272L61.3203 12.672L61.1043 12.936V15.6L60.9603 16.944L60.4803 17.424L57.7443 17.232L57.1443 16.416L57.3123 15.984L57.2163 14.664L57.5043 12.24L57.7443 10.464C57.7443 10.416 57.7523 10.376 57.7683 10.344C57.7683 10.312 57.7683 10.272 57.7683 10.224C57.7843 10.176 57.7923 10.136 57.7923 10.104C57.8723 10.04 57.9203 9.896 57.9363 9.672C57.9683 9.448 57.9763 9.304 57.9603 9.24C57.9603 9.128 57.9523 9.024 57.9363 8.928C57.9363 8.832 57.9043 8.624 57.8403 8.304C57.8243 8.208 57.7683 8.096 57.6723 7.968C57.5923 7.824 57.5043 7.696 57.4083 7.584L57.7203 6.84H58.1763L60.6483 6.384L61.2483 6.672C61.2003 6.944 61.1923 7.176 61.2243 7.368C61.2723 7.544 61.3363 7.68 61.4163 7.776C61.5123 7.872 61.6163 7.936 61.7283 7.968C61.8403 7.984 61.9363 7.968 62.0163 7.92L62.4483 7.68C62.5283 7.648 62.5523 7.56 62.5203 7.416C62.5043 7.272 62.5123 7.088 62.5443 6.864L65.5203 6.336L65.8323 6.72ZM79.7458 16.152L76.3858 16.56L75.6898 15.432C75.6898 15.224 75.5298 15.232 75.2098 15.456C75.1298 15.504 75.0498 15.584 74.9698 15.696C74.8898 15.808 74.8098 15.92 74.7298 16.032C74.6818 16.096 74.6338 16.16 74.5858 16.224C74.5378 16.288 74.4898 16.36 74.4418 16.44C73.9458 16.808 73.4338 17.048 72.9058 17.16C72.3938 17.272 71.9538 17.2 71.5858 16.944C71.3138 16.912 71.1298 16.848 71.0338 16.752C70.9858 16.72 70.9218 16.664 70.8418 16.584L69.3058 16.488L68.6578 16.176L68.0578 14.664L68.1777 14.16L67.6498 12.048L68.6578 10.368L69.4738 9.624C69.7778 9.464 70.1298 9.336 70.5298 9.24C70.9298 9.144 71.3298 9.08 71.7298 9.048C72.1298 9 72.5138 8.992 72.8818 9.024C73.2498 9.04 73.5538 9.088 73.7938 9.168C73.7938 9.424 73.8738 9.592 74.0338 9.672C74.1938 9.752 74.5058 9.84 74.9698 9.936C75.1298 9.664 75.2098 9.336 75.2098 8.952C75.2098 8.552 75.1378 8.136 74.9938 7.704L74.6098 6.48C74.4818 6.432 74.2818 6.352 74.0098 6.24C73.7538 6.112 73.5378 6.008 73.3618 5.928L72.3298 6.096L71.2738 6.312L71.0338 5.928L71.2978 5.304L71.4658 4.92L71.8018 4.848L72.9058 4.656L73.8898 4.992L74.9698 4.824L77.0578 5.448L77.9458 6.792L78.2578 10.608L78.1858 11.808L78.7137 14.616L79.0258 14.76H79.7698L80.0818 15.6L79.7458 16.152ZM70.9378 12.24C70.8578 12.656 70.8578 13.008 70.9378 13.296C71.0338 13.584 71.1858 13.824 71.3938 14.016L71.7538 14.76C72.0418 14.856 72.3138 14.928 72.5698 14.976C72.8258 15.024 73.0898 15.032 73.3618 15C73.6498 14.952 73.9458 14.864 74.2498 14.736C74.5698 14.592 74.9378 14.384 75.3538 14.112L75.4018 12.888L74.9698 10.752C74.7458 10.672 74.5458 10.632 74.3698 10.632C74.2098 10.632 74.0498 10.648 73.8898 10.68C73.6978 10.728 73.4738 10.768 73.2178 10.8C72.9618 10.832 72.6978 10.872 72.4258 10.92C72.1698 10.952 71.9298 11 71.7058 11.064C71.4978 11.112 71.3458 11.184 71.2498 11.28L70.9378 12.24ZM81.0314 8.712C80.9674 8.536 80.9194 8.304 80.8874 8.016C80.8554 7.712 80.8234 7.456 80.7914 7.248L81.2474 6.384C81.5354 6.336 81.7354 6.32 81.8474 6.336C81.9754 6.352 82.0714 6.376 82.1354 6.408C82.2314 6.392 82.3674 6.376 82.5434 6.36C82.7354 6.328 83.0234 6.28 83.4074 6.216C83.4394 5.944 83.4954 5.64 83.5754 5.304C83.6554 4.968 83.7114 4.592 83.7434 4.176L83.4074 3.84L83.3834 3.48L83.6474 2.856H86.5274L87.6074 2.904C87.7194 3.032 87.7674 3.184 87.7514 3.36C87.7354 3.52 87.7034 3.672 87.6554 3.816C87.6074 3.96 87.5594 4.08 87.5114 4.176C87.4794 4.256 87.4874 4.28 87.5354 4.248V5.736C87.4394 5.816 87.3674 5.912 87.3194 6.024C87.2714 6.12 87.2314 6.232 87.1994 6.36L87.2474 6.408L88.6394 6.36C88.6874 6.376 88.7354 6.392 88.7834 6.408C88.8314 6.424 88.8874 6.44 88.9514 6.456C89.1434 6.504 89.3914 6.528 89.6954 6.528L89.9114 6.768L89.6474 7.92C89.5514 7.92 89.4234 7.936 89.2634 7.968C89.1034 7.984 88.9354 8.008 88.7594 8.04C88.5994 8.056 88.4474 8.072 88.3034 8.088C88.1754 8.104 88.0874 8.112 88.0394 8.112L87.0314 8.4C86.9674 8.576 86.9194 8.728 86.8874 8.856C86.8714 8.968 86.8634 9.08 86.8634 9.192C86.8634 9.288 86.8634 9.4 86.8634 9.528C86.8794 9.64 86.8874 9.784 86.8874 9.96L86.7194 13.008C86.6714 13.28 86.6554 13.528 86.6714 13.752C86.7034 13.976 86.7434 14.168 86.7914 14.328C86.8234 14.408 86.8554 14.488 86.8874 14.568C86.9194 14.648 86.9514 14.728 86.9834 14.808L87.1994 15.432L87.2954 15.552L89.6234 14.832L90.5114 14.616L91.0394 15.096L90.4634 15.864L89.9114 16.152L89.4314 16.248L86.6714 17.472C86.5914 17.472 86.5274 17.464 86.4794 17.448C86.3994 17.448 86.3034 17.448 86.1914 17.448C86.0954 17.432 85.9834 17.416 85.8554 17.4C85.2794 17.352 84.8474 17.368 84.5594 17.448C84.5594 17 84.3834 16.696 84.0314 16.536C83.8554 16.424 83.6954 16.328 83.5514 16.248C83.4234 16.168 83.3034 16.104 83.1914 16.056C83.1914 15.784 83.1914 15.6 83.1914 15.504C83.2074 15.408 83.1914 15.28 83.1434 15.12C83.1114 15.04 83.1034 14.864 83.1194 14.592C83.1354 14.304 83.1514 13.944 83.1674 13.512C83.1994 13.064 83.1834 12.704 83.1194 12.432C83.0554 12.144 82.9594 12 82.8314 12C82.8474 11.792 82.8554 11.584 82.8554 11.376C82.8714 11.168 82.8874 10.984 82.9034 10.824C82.9194 10.744 82.9274 10.656 82.9274 10.56C82.9274 10.464 82.9274 10.376 82.9274 10.296C82.9594 10.232 82.9834 10.184 82.9994 10.152C83.0154 10.104 83.0314 10.072 83.0474 10.056C83.0634 10.024 83.1354 9.984 83.2634 9.936C83.4074 9.872 83.5354 9.704 83.6474 9.432C84.0154 9.176 84.1754 8.944 84.1274 8.736C84.0794 8.528 83.7994 8.384 83.2874 8.304C83.1754 8.32 83.0794 8.352 82.9994 8.4C82.9354 8.432 82.9034 8.52 82.9034 8.664L81.4634 8.976L81.0314 8.712ZM104.351 7.2L103.895 10.56L103.967 11.928L103.847 13.368L103.487 14.76L102.095 16.824C101.487 17.288 100.831 17.6 100.127 17.76C99.4226 17.92 98.6626 17.96 97.8466 17.88L96.7186 17.376H96.0706C95.8146 17.376 95.3666 17.128 94.7266 16.632C94.4546 16.424 94.2226 16.24 94.0306 16.08C93.9826 16.048 93.9346 16.016 93.8866 15.984C93.8546 15.952 93.8226 15.92 93.7906 15.888C93.7906 15.76 93.7746 15.6 93.7426 15.408C93.7106 15.216 93.6626 14.976 93.5986 14.688C93.5506 14.4 93.5026 14.176 93.4546 14.016C93.4226 13.84 93.3986 13.712 93.3826 13.632C93.3826 13.584 93.3906 13.528 93.4066 13.464C93.4226 13.384 93.4226 13.312 93.4066 13.248C93.4066 13.168 93.3826 13.104 93.3346 13.056C93.2866 13.008 93.1986 12.984 93.0706 12.984L93.1426 11.64C93.2066 11.464 93.2386 11.344 93.2386 11.28C93.2386 11.216 93.2306 11.16 93.2146 11.112C93.1986 11.064 93.1906 11 93.1906 10.92C93.1906 10.84 93.2306 10.704 93.3106 10.512L93.4306 9.624C93.5746 9.672 93.6866 9.632 93.7666 9.504C93.8626 9.376 93.9186 9.224 93.9346 9.048C93.9666 8.856 93.9586 8.688 93.9106 8.544C93.8626 8.384 93.7666 8.304 93.6226 8.304C93.5586 8.176 93.5186 8.04 93.5026 7.896C93.4866 7.736 93.4946 7.656 93.5266 7.656C93.5266 7.56 93.5186 7.448 93.5026 7.32C93.4866 7.192 93.4786 6.952 93.4786 6.6L94.1746 6.024C94.3666 6.04 94.6066 6.056 94.8946 6.072C95.1826 6.072 95.4786 6.072 95.7826 6.072C96.1026 6.072 96.4066 6.08 96.6946 6.096C96.9826 6.096 97.2146 6.112 97.3906 6.144L97.5826 6.456C97.4866 6.776 97.4386 7.008 97.4386 7.152C97.4226 7.248 97.4226 7.328 97.4386 7.392L97.3906 8.496C97.3426 8.592 97.2946 8.736 97.2466 8.928C97.2146 9.104 97.1826 9.304 97.1506 9.528C97.1346 9.736 97.1186 9.952 97.1026 10.176C97.0866 10.4 97.0786 10.592 97.0786 10.752C96.9986 11.024 96.9186 11.312 96.8386 11.616C96.7586 11.904 96.7506 12.176 96.8146 12.432C96.8466 12.512 96.8626 12.616 96.8626 12.744C96.8786 12.856 96.9346 13.072 97.0306 13.392C96.9986 13.488 96.9746 13.608 96.9586 13.752C96.9426 13.896 96.9346 14.048 96.9346 14.208C96.9506 14.352 96.9826 14.504 97.0306 14.664C97.0946 14.808 97.1826 14.928 97.2946 15.024L98.2066 15.744L99.6466 15.864C99.8066 16.072 99.9506 16.176 100.079 16.176C100.207 16.16 100.311 15.992 100.391 15.672L101.231 15.168L101.903 13.392L101.927 12.288V11.112C102.247 10.888 102.423 10.648 102.455 10.392C102.487 10.136 102.319 9.832 101.951 9.48L101.879 6.72L102.359 6.288L103.823 6.408L104.351 7.2ZM111.309 13.752L111.405 15.456L111.309 16.344V16.8L110.853 17.448L110.061 17.64L107.997 18.024C107.821 18.056 107.677 18.032 107.565 17.952C107.469 17.856 107.421 17.624 107.421 17.256V17.208L107.805 15.384L107.877 13.752V12.84L108.165 10.776C108.149 10.696 108.133 10.544 108.117 10.32C108.101 10.096 108.077 9.816 108.045 9.48C108.029 9.304 108.021 9.144 108.021 9C108.021 8.856 108.013 8.728 107.997 8.616V8.112C107.997 8.128 108.053 8.08 108.165 7.968C108.277 7.84 108.373 7.688 108.453 7.512C108.533 7.32 108.565 7.112 108.549 6.888C108.533 6.664 108.397 6.456 108.141 6.264L108.549 2.112C108.661 2.048 108.669 1.856 108.573 1.536L109.053 1.056L109.365 1.008C109.429 1.024 109.533 1.04 109.677 1.056C109.821 1.056 109.973 1.064 110.133 1.08C110.293 1.08 110.445 1.088 110.589 1.104C110.749 1.104 110.869 1.112 110.949 1.128C111.093 1.16 111.277 1.184 111.501 1.2C111.725 1.2 111.885 1.224 111.981 1.272L112.461 1.536V1.992C112.509 2.088 112.501 2.224 112.437 2.4C112.389 2.56 112.373 2.752 112.389 2.976C112.389 3.088 112.381 3.216 112.365 3.36C112.349 3.504 112.333 3.64 112.317 3.768C112.317 3.896 112.309 4.008 112.293 4.104C112.277 4.2 112.269 4.256 112.269 4.272C112.269 4.304 112.261 4.344 112.245 4.392L112.221 4.584C112.221 4.648 112.205 4.704 112.173 4.752C112.157 4.8 112.141 4.816 112.125 4.8C112.109 4.8 112.069 4.848 112.005 4.944C111.957 5.04 111.901 5.16 111.837 5.304C111.789 5.432 111.749 5.568 111.717 5.712C111.685 5.856 111.677 5.968 111.693 6.048C111.709 6.128 111.725 6.256 111.741 6.432C111.757 6.592 111.773 6.816 111.789 7.104C111.789 7.248 111.789 7.376 111.789 7.488C111.805 7.6 111.813 7.696 111.813 7.776C111.813 7.872 111.821 7.944 111.837 7.992L111.669 9.408L111.717 10.104C111.493 10.552 111.389 10.864 111.405 11.04C111.437 11.216 111.533 11.36 111.693 11.472L111.309 13.752ZM127.207 16.152L123.847 16.56L123.151 15.432C123.151 15.224 122.991 15.232 122.671 15.456C122.591 15.504 122.511 15.584 122.431 15.696C122.351 15.808 122.271 15.92 122.191 16.032C122.143 16.096 122.095 16.16 122.047 16.224C121.999 16.288 121.951 16.36 121.903 16.44C121.407 16.808 120.895 17.048 120.367 17.16C119.855 17.272 119.415 17.2 119.047 16.944C118.775 16.912 118.591 16.848 118.495 16.752C118.447 16.72 118.383 16.664 118.303 16.584L116.767 16.488L116.119 16.176L115.519 14.664L115.639 14.16L115.111 12.048L116.119 10.368L116.935 9.624C117.239 9.464 117.591 9.336 117.991 9.24C118.391 9.144 118.791 9.08 119.191 9.048C119.591 9 119.975 8.992 120.343 9.024C120.711 9.04 121.015 9.088 121.255 9.168C121.255 9.424 121.335 9.592 121.495 9.672C121.655 9.752 121.967 9.84 122.431 9.936C122.591 9.664 122.671 9.336 122.671 8.952C122.671 8.552 122.599 8.136 122.455 7.704L122.071 6.48C121.943 6.432 121.743 6.352 121.471 6.24C121.215 6.112 120.999 6.008 120.823 5.928L119.791 6.096L118.735 6.312L118.495 5.928L118.759 5.304L118.927 4.92L119.263 4.848L120.367 4.656L121.351 4.992L122.431 4.824L124.519 5.448L125.407 6.792L125.719 10.608L125.647 11.808L126.175 14.616L126.487 14.76H127.231L127.543 15.6L127.207 16.152ZM118.399 12.24C118.319 12.656 118.319 13.008 118.399 13.296C118.495 13.584 118.647 13.824 118.855 14.016L119.215 14.76C119.503 14.856 119.775 14.928 120.031 14.976C120.287 15.024 120.551 15.032 120.823 15C121.111 14.952 121.407 14.864 121.711 14.736C122.031 14.592 122.399 14.384 122.815 14.112L122.863 12.888L122.431 10.752C122.207 10.672 122.007 10.632 121.831 10.632C121.671 10.632 121.511 10.648 121.351 10.68C121.159 10.728 120.935 10.768 120.679 10.8C120.423 10.832 120.159 10.872 119.887 10.92C119.631 10.952 119.391 11 119.167 11.064C118.959 11.112 118.807 11.184 118.711 11.28L118.399 12.24ZM128.492 8.712C128.428 8.536 128.38 8.304 128.348 8.016C128.316 7.712 128.284 7.456 128.252 7.248L128.708 6.384C128.996 6.336 129.196 6.32 129.308 6.336C129.436 6.352 129.532 6.376 129.596 6.408C129.692 6.392 129.828 6.376 130.004 6.36C130.196 6.328 130.484 6.28 130.868 6.216C130.9 5.944 130.956 5.64 131.036 5.304C131.116 4.968 131.172 4.592 131.204 4.176L130.868 3.84L130.844 3.48L131.108 2.856H133.988L135.068 2.904C135.18 3.032 135.228 3.184 135.212 3.36C135.196 3.52 135.164 3.672 135.116 3.816C135.068 3.96 135.02 4.08 134.972 4.176C134.94 4.256 134.948 4.28 134.996 4.248V5.736C134.9 5.816 134.828 5.912 134.78 6.024C134.732 6.12 134.692 6.232 134.66 6.36L134.708 6.408L136.1 6.36C136.148 6.376 136.196 6.392 136.244 6.408C136.292 6.424 136.348 6.44 136.412 6.456C136.604 6.504 136.852 6.528 137.156 6.528L137.372 6.768L137.108 7.92C137.012 7.92 136.884 7.936 136.724 7.968C136.564 7.984 136.396 8.008 136.22 8.04C136.06 8.056 135.908 8.072 135.764 8.088C135.636 8.104 135.548 8.112 135.5 8.112L134.492 8.4C134.428 8.576 134.38 8.728 134.348 8.856C134.332 8.968 134.324 9.08 134.324 9.192C134.324 9.288 134.324 9.4 134.324 9.528C134.34 9.64 134.348 9.784 134.348 9.96L134.18 13.008C134.132 13.28 134.116 13.528 134.132 13.752C134.164 13.976 134.204 14.168 134.252 14.328C134.284 14.408 134.316 14.488 134.348 14.568C134.38 14.648 134.412 14.728 134.444 14.808L134.66 15.432L134.756 15.552L137.084 14.832L137.972 14.616L138.5 15.096L137.924 15.864L137.372 16.152L136.892 16.248L134.132 17.472C134.052 17.472 133.988 17.464 133.94 17.448C133.86 17.448 133.764 17.448 133.652 17.448C133.556 17.432 133.444 17.416 133.316 17.4C132.74 17.352 132.308 17.368 132.02 17.448C132.02 17 131.844 16.696 131.492 16.536C131.316 16.424 131.156 16.328 131.012 16.248C130.884 16.168 130.764 16.104 130.652 16.056C130.652 15.784 130.652 15.6 130.652 15.504C130.668 15.408 130.652 15.28 130.604 15.12C130.572 15.04 130.564 14.864 130.58 14.592C130.596 14.304 130.612 13.944 130.628 13.512C130.66 13.064 130.644 12.704 130.58 12.432C130.516 12.144 130.42 12 130.292 12C130.308 11.792 130.316 11.584 130.316 11.376C130.332 11.168 130.348 10.984 130.364 10.824C130.38 10.744 130.388 10.656 130.388 10.56C130.388 10.464 130.388 10.376 130.388 10.296C130.42 10.232 130.444 10.184 130.46 10.152C130.476 10.104 130.492 10.072 130.508 10.056C130.524 10.024 130.596 9.984 130.724 9.936C130.868 9.872 130.996 9.704 131.108 9.432C131.476 9.176 131.636 8.944 131.588 8.736C131.54 8.528 131.26 8.384 130.748 8.304C130.636 8.32 130.54 8.352 130.46 8.4C130.396 8.432 130.364 8.52 130.364 8.664L128.924 8.976L128.492 8.712ZM142.212 2.496C142.244 2.368 142.26 2.248 142.26 2.136C142.276 2.008 142.292 1.88 142.308 1.752C142.308 1.64 142.308 1.544 142.308 1.464C142.324 1.384 142.332 1.312 142.332 1.248L142.452 0.983999C142.5 0.967999 142.564 0.959999 142.644 0.959999C142.724 0.959999 142.82 0.951999 142.932 0.935999C143.268 0.92 143.484 0.88 143.58 0.816C143.58 0.8 143.62 0.768 143.7 0.719999C143.748 0.671999 143.788 0.639999 143.82 0.623999C143.836 0.623999 143.892 0.631999 143.988 0.647999C144.084 0.663999 144.212 0.695999 144.372 0.743999C144.644 0.807999 144.836 0.839999 144.948 0.839999C145.092 0.839999 145.172 0.831999 145.188 0.816C145.204 0.8 145.252 0.8 145.332 0.816L145.548 1.224L145.764 2.448L145.26 3.288C145.244 3.304 145.228 3.32 145.212 3.336C145.212 3.352 145.196 3.368 145.164 3.384C145.084 3.432 144.988 3.504 144.876 3.6L144.804 3.672L144.084 3.744C143.988 3.712 143.876 3.68 143.748 3.648C143.62 3.6 143.468 3.544 143.292 3.48C143.116 3.416 142.964 3.36 142.836 3.312C142.708 3.248 142.596 3.2 142.5 3.168L142.38 3.048L142.212 2.496ZM145.188 6.624L145.092 7.488L145.188 7.848L145.044 8.232L145.116 8.784L144.996 9.24L145.068 9.384L144.972 10.464L144.876 12.744C144.876 12.856 144.86 13 144.828 13.176C144.796 13.336 144.772 13.512 144.756 13.704C144.74 13.88 144.74 14.064 144.756 14.256C144.772 14.432 144.82 14.584 144.9 14.712C144.884 14.952 144.86 15.232 144.828 15.552C144.796 15.872 144.74 16.24 144.66 16.656C144.532 16.832 144.396 16.992 144.252 17.136C144.124 17.264 143.876 17.336 143.508 17.352C143.3 17.368 143.092 17.384 142.884 17.4C142.692 17.416 142.508 17.44 142.332 17.472C142.236 17.488 142.14 17.504 142.044 17.52C141.948 17.536 141.844 17.56 141.732 17.592L141.132 16.824C141.148 16.744 141.172 16.528 141.204 16.176C141.252 15.808 141.292 15.376 141.324 14.88C141.356 14.384 141.372 13.856 141.372 13.296C141.388 12.736 141.372 12.216 141.324 11.736L141.468 11.28L141.684 10.224L141.756 9.384L141.9 9.096L141.924 8.88L142.068 8.232L142.188 6.912L144.348 6.072L145.188 6.624ZM159.889 9C159.937 9.272 159.961 9.512 159.961 9.72C159.961 9.912 159.953 10.104 159.937 10.296C159.937 10.472 159.945 10.648 159.961 10.824C159.993 10.984 160.057 11.16 160.153 11.352C160.121 11.416 160.041 11.544 159.913 11.736C159.801 11.912 159.721 12.096 159.673 12.288C159.641 12.464 159.617 12.6 159.601 12.696C159.585 12.792 159.569 12.856 159.553 12.888C159.601 12.92 159.641 12.984 159.673 13.08C159.689 13.16 159.673 13.264 159.625 13.392C159.577 13.504 159.481 13.664 159.337 13.872C159.049 14.256 158.889 14.584 158.857 14.856C158.825 15.112 158.761 15.312 158.665 15.456C158.633 15.488 158.529 15.536 158.353 15.6C158.193 15.664 158.001 15.744 157.777 15.84C157.553 15.92 157.329 16.016 157.105 16.128C156.881 16.24 156.705 16.352 156.577 16.464C156.305 16.512 156.065 16.576 155.857 16.656C155.649 16.736 155.393 16.792 155.089 16.824C154.801 16.888 154.505 16.968 154.201 17.064C153.897 17.144 153.729 17.184 153.697 17.184C152.945 17.184 152.497 17.208 152.353 17.256C152.225 17.304 152.073 17.328 151.897 17.328L149.713 16.536L148.705 15.072C148.705 14.688 148.689 14.368 148.657 14.112C148.641 13.84 148.617 13.608 148.585 13.416C148.553 13.208 148.529 13.016 148.513 12.84C148.497 12.664 148.497 12.464 148.513 12.24C148.561 12.192 148.633 12.08 148.729 11.904C148.825 11.712 148.921 11.496 149.017 11.256C149.129 11.016 149.233 10.768 149.329 10.512C149.441 10.256 149.521 10.04 149.569 9.864C149.697 9.496 149.793 9.176 149.857 8.904C149.921 8.616 149.969 8.36 150.001 8.136C150.129 8.056 150.233 7.968 150.313 7.872C150.393 7.776 150.473 7.696 150.553 7.632C151.209 7.248 151.777 6.936 152.257 6.696C152.737 6.44 153.185 6.28 153.601 6.216L154.321 6.168C154.401 6.184 154.473 6.2 154.537 6.216C154.601 6.232 154.665 6.248 154.729 6.264C154.825 6.296 154.913 6.32 154.993 6.336C155.073 6.336 155.121 6.336 155.137 6.336L155.617 7.08C155.617 7.224 155.585 7.344 155.521 7.44C155.457 7.52 155.521 7.576 155.713 7.608C155.921 7.656 156.033 7.688 156.049 7.704V7.728C156.305 7.728 156.569 7.672 156.841 7.56C157.113 7.432 157.385 7.368 157.657 7.368C157.721 7.368 157.833 7.4 157.993 7.464C158.153 7.512 158.321 7.576 158.497 7.656C158.673 7.736 158.833 7.816 158.977 7.896C159.137 7.96 159.249 8.008 159.313 8.04C159.281 8.28 159.289 8.448 159.337 8.544C159.385 8.64 159.449 8.712 159.529 8.76C159.609 8.792 159.681 8.824 159.745 8.856C159.825 8.872 159.873 8.92 159.889 9ZM155.593 15C155.833 14.84 156.065 14.328 156.289 13.464C156.417 13 156.521 12.656 156.601 12.432C156.697 12.192 156.745 11.968 156.745 11.76C156.745 11.408 156.625 10.992 156.385 10.512C156.257 10.256 156.161 10.04 156.097 9.864C156.033 9.688 155.985 9.512 155.953 9.336C155.825 9.272 155.753 9.176 155.737 9.048C155.737 8.904 155.673 8.76 155.545 8.616C155.385 8.488 155.289 8.44 155.257 8.472C155.225 8.504 155.193 8.52 155.161 8.52H154.945C154.817 8.52 154.641 8.544 154.417 8.592C154.209 8.64 154.041 8.752 153.913 8.928C153.721 9.136 153.553 9.304 153.409 9.432C153.281 9.544 153.209 9.616 153.193 9.648C153.033 9.952 152.889 10.216 152.761 10.44C152.633 10.648 152.529 10.816 152.449 10.944L152.233 11.448C152.137 11.688 152.097 12.008 152.113 12.408C152.145 12.472 152.177 12.616 152.209 12.84C152.241 13.048 152.145 13.272 151.921 13.512C151.873 13.56 151.825 13.656 151.777 13.8C151.729 13.928 151.697 14.08 151.681 14.256C151.665 14.432 151.681 14.608 151.729 14.784C151.793 14.96 151.913 15.112 152.089 15.24C152.313 15.4 152.545 15.56 152.785 15.72C153.025 15.864 153.177 15.936 153.241 15.936H153.505C153.601 15.936 153.689 15.96 153.769 16.008L155.593 15ZM165.796 17.496C165.748 17.496 165.644 17.504 165.484 17.52C165.34 17.52 165.18 17.528 165.004 17.544C164.828 17.544 164.66 17.552 164.5 17.568C164.34 17.568 164.228 17.568 164.164 17.568L163.636 17.616L163.228 17.328C163.212 17.088 163.228 16.808 163.276 16.488C163.34 16.168 163.372 15.92 163.372 15.744C163.564 15.744 163.604 15.552 163.492 15.168C163.364 14.784 163.316 14.48 163.348 14.256C163.364 14 163.404 13.744 163.468 13.488C163.532 13.216 163.54 13.04 163.492 12.96C163.46 12.864 163.42 12.76 163.372 12.648C163.324 12.52 163.284 12.376 163.252 12.216L163.54 10.656C163.54 9.792 163.548 9.128 163.564 8.664C163.596 8.2 163.62 7.856 163.636 7.632C163.668 7.408 163.7 7.272 163.732 7.224C163.78 7.16 163.812 7.104 163.828 7.056C163.86 7.008 163.876 6.928 163.876 6.816C163.892 6.704 163.892 6.48 163.876 6.144L164.38 5.88C164.652 5.896 164.98 5.944 165.364 6.024C165.764 6.088 166.148 6.16 166.516 6.24C166.708 6.272 166.876 6.304 167.02 6.336C167.164 6.352 167.292 6.376 167.404 6.408L167.74 6.864C167.436 7.072 167.236 7.208 167.14 7.272C167.044 7.336 167.036 7.472 167.116 7.68C167.404 7.936 167.652 8.016 167.86 7.92C168.084 7.824 168.236 7.672 168.316 7.464L169.876 7.08H170.788L171.196 7.224C171.58 7.352 171.964 7.488 172.348 7.632C172.748 7.776 173.076 7.888 173.332 7.968L173.764 9.024L173.74 9.312C173.772 9.776 173.796 10.224 173.812 10.656C173.844 11.072 173.844 11.584 173.812 12.192C173.796 12.576 173.78 12.968 173.764 13.368C173.748 13.752 173.732 14.12 173.716 14.472C173.716 14.824 173.716 15.136 173.716 15.408C173.716 15.664 173.716 15.856 173.716 15.984C173.716 16 173.732 16.064 173.764 16.176C173.812 16.288 173.876 16.408 173.956 16.536L173.788 16.8L173.332 17.016C173.108 17.032 172.82 17.072 172.468 17.136C172.132 17.2 171.852 17.232 171.628 17.232C171.532 17.232 171.452 17.2 171.388 17.136C171.324 17.056 171.18 17.024 170.956 17.04L170.62 16.752C170.652 16.544 170.66 16.376 170.644 16.248C170.628 16.104 170.604 15.984 170.572 15.888C170.54 15.776 170.508 15.68 170.476 15.6C170.444 15.52 170.428 15.44 170.428 15.36C170.444 15.12 170.468 14.856 170.5 14.568C170.532 14.344 170.564 14.088 170.596 13.8C170.644 13.496 170.7 13.2 170.764 12.912C170.796 12.736 170.812 12.512 170.812 12.24C170.812 11.952 170.812 11.672 170.812 11.4C170.812 11.112 170.812 10.84 170.812 10.584C170.812 10.328 170.82 10.136 170.836 10.008L170.14 8.784C170.076 8.768 170.012 8.752 169.948 8.736C169.884 8.72 169.812 8.696 169.732 8.664C169.604 8.632 169.476 8.64 169.348 8.688C169.236 8.736 169.124 8.792 169.012 8.856C168.9 8.92 168.796 8.984 168.7 9.048C168.604 9.112 168.516 9.144 168.436 9.144C168.436 9.192 168.348 9.152 168.172 9.024C168.012 8.88 167.876 8.744 167.764 8.616C167.492 8.392 167.292 8.352 167.164 8.496C167.052 8.624 166.956 8.8 166.876 9.024C166.892 9.2 166.916 9.32 166.948 9.384C166.996 9.448 167.044 9.496 167.092 9.528C167.156 9.544 167.212 9.544 167.26 9.528C167.18 9.592 167.116 9.712 167.068 9.888C167.02 10.048 166.98 10.232 166.948 10.44C166.932 10.632 166.924 10.84 166.924 11.064C166.94 11.272 166.964 11.464 166.996 11.64C167.028 11.832 167.004 12.168 166.924 12.648C166.86 13.128 166.844 13.68 166.876 14.304C166.876 14.544 166.868 14.8 166.852 15.072C166.836 15.328 166.82 15.584 166.804 15.84C166.788 16.08 166.772 16.304 166.756 16.512C166.74 16.704 166.732 16.856 166.732 16.968V17.04C166.428 17.296 166.116 17.448 165.796 17.496ZM176.455 8.136L177.487 6.48C177.551 6.48 177.615 6.48 177.679 6.48C177.743 6.464 177.815 6.448 177.895 6.432C178.023 6.416 178.191 6.392 178.399 6.36C178.607 6.328 178.847 6.296 179.119 6.264C180.207 6.136 180.607 5.872 180.319 5.472L183.751 4.968H184.639L184.807 5.16L184.903 5.952L184.495 6.264L183.295 6.288L181.735 7.056L180.007 7.608L179.719 8.256L180.271 9.6L180.943 9.696L181.255 10.392L181.831 10.344L182.167 10.752C182.311 10.704 182.455 10.672 182.599 10.656C182.743 10.624 182.871 10.624 182.983 10.656C183.063 10.672 183.151 10.688 183.247 10.704C183.343 10.704 183.455 10.72 183.583 10.752C183.743 10.8 183.855 10.856 183.919 10.92C183.983 10.968 184.039 11.016 184.087 11.064C184.135 11.096 184.191 11.128 184.255 11.16C184.319 11.192 184.431 11.208 184.591 11.208C184.639 11.304 184.727 11.4 184.855 11.496C184.999 11.592 185.151 11.688 185.311 11.784C185.487 11.88 185.655 11.976 185.815 12.072C185.991 12.168 186.119 12.264 186.199 12.36C186.231 12.392 186.247 12.416 186.247 12.432C186.263 12.448 186.287 12.472 186.319 12.504L186.463 13.656L185.935 15.096L185.791 16.104L184.615 16.704L182.671 17.472L181.495 17.304C181.079 17.24 180.711 17.24 180.391 17.304C180.071 17.368 179.775 17.4 179.503 17.4H176.863L176.575 16.68L176.767 15.984L180.247 15.624L181.399 15.48L182.839 13.944L182.623 13.248L181.567 13.056L179.719 12.552L179.407 12.72L178.399 12.264L177.751 11.832L177.007 10.2L176.455 9.12V8.136Z" fill="black"/>
</svg>
