<svg width="20" height="20" viewBox="0 0 20 20" fill="none" xmlns="http://www.w3.org/2000/svg">
<path d="M17.3172 11.4422L11.6922 17.0672C11.5749 17.1845 11.4159 17.2504 11.25 17.2504C11.0841 17.2504 10.9251 17.1845 10.8078 17.0672C10.6905 16.9499 10.6247 16.7909 10.6247 16.625C10.6247 16.4592 10.6905 16.3001 10.8078 16.1828L15.3664 11.625H3.125C2.95924 11.625 2.80027 11.5592 2.68306 11.442C2.56585 11.3247 2.5 11.1658 2.5 11C2.5 10.8343 2.56585 10.6753 2.68306 10.5581C2.80027 10.4409 2.95924 10.375 3.125 10.375H15.3664L10.8078 5.8172C10.6905 5.69992 10.6247 5.54086 10.6247 5.37501C10.6247 5.20916 10.6905 5.0501 10.8078 4.93282C10.9251 4.81555 11.0841 4.74966 11.25 4.74966C11.4159 4.74966 11.5749 4.81555 11.6922 4.93282L17.3172 10.5578C17.3753 10.6159 17.4214 10.6848 17.4528 10.7607C17.4843 10.8365 17.5005 10.9179 17.5005 11C17.5005 11.0821 17.4843 11.1635 17.4528 11.2393C17.4214 11.3152 17.3753 11.3842 17.3172 11.4422Z" fill="white"/>
</svg>
