<svg width="27" height="25" viewBox="0 0 27 25" fill="none" xmlns="http://www.w3.org/2000/svg">
<path d="M24.2359 7.4C24.2523 7.6205 24.2523 7.84082 24.2523 8.06328C24.2523 14.8406 18.68 22.657 8.49108 22.657V22.6531C5.48102 22.657 2.53334 21.8587 0 20.3535C0.437695 20.4023 0.8775 20.4268 1.31836 20.4277C3.81314 20.4296 6.23616 19.6548 8.19809 18.2279C7.04214 18.2077 5.92192 17.8535 4.99403 17.2149C4.06615 16.5762 3.37701 15.6851 3.02295 14.666C3.85341 14.8144 4.70897 14.7838 5.52403 14.5775C2.93963 14.0941 1.08042 11.9918 1.08042 9.55019V9.48515C1.85083 9.88255 2.71309 10.1027 3.59459 10.1271C1.16016 8.6209 0.410273 5.62265 1.88009 3.27871C3.27077 4.86321 5.00588 6.15913 6.97271 7.08228C8.93954 8.00543 11.0941 8.53518 13.2964 8.63711C13.0769 7.76187 13.1094 6.8486 13.3907 5.98863C13.6719 5.12867 14.1921 4.35214 14.8991 3.73672C17.1302 1.79472 20.6392 1.89433 22.7363 3.95918C23.9769 3.73237 25.1666 3.31122 26.2541 2.71386C25.8406 3.9015 24.9752 4.90964 23.8191 5.55078C24.9171 5.4309 25.9895 5.15864 27 4.74316C26.2566 5.77395 25.3206 6.67366 24.2359 7.4Z" fill="#1D9BF0"/>
</svg>
