<svg width="147" height="29" viewBox="0 0 147 29" fill="none" xmlns="http://www.w3.org/2000/svg">
<path d="M2.45605 11.0958C2.45605 16.0199 2.7502 18.0107 8.32776 18.3122C11.2939 18.4725 16.1096 17.759 13.7961 22.7944C12.8673 24.8158 9.92879 27.18 7.6106 27.2766C5.41293 27.3682 6.77154 20.1703 7.02792 19.1638C7.81542 16.0721 9.53582 12.5429 11.6446 10.1097C13.1644 8.35614 15.7142 16.365 15.9923 17.0123C20.4079 27.2899 18.1185 17.6398 23.4328 17.6398C25.5839 17.6398 26.1872 20.2637 28.7218 19.9258C30.9255 19.632 32.873 18.357 35.0866 18.357C39.768 18.357 35.1001 5.52835 30.5147 4.95518C25.8559 4.37282 39.3318 8.31189 43.3787 10.6924C46.0566 12.2676 49.3527 14.225 49.5641 17.8191C49.7606 21.1583 45.9552 21.5969 45.2164 18.5363C44.857 17.0472 45.428 8.42021 48.4884 11.6337C50.0438 13.2668 51.3318 14.7651 53.2844 15.9366C60.1106 20.0323 68.7542 8.65567 73.7233 4.41731C80.1661 -1.07802 76.7826 5.03418 77.8918 8.36166C78.1853 9.24216 78.0999 10.1963 78.3848 11.051C78.6413 11.8206 80.3613 11.7359 80.357 11.813C80.1988 14.6592 73.0571 17.9701 72.6476 13.8748C72.6077 13.4759 73.8386 24.4994 70.4064 24.8114C65.322 25.2736 79.4032 19.8934 84.2117 18.1777C103.98 11.1243 124.626 8.58805 145.259 5.44822" stroke="black" stroke-width="3" stroke-linecap="round"/>
</svg>
