<svg width="665" height="383" viewBox="0 0 665 383" fill="none" xmlns="http://www.w3.org/2000/svg">
<path d="M92.9076 88.4884C82.2236 110.141 69.157 129.573 55.6747 149.624C43.2239 168.14 27.4547 187.476 19.9127 208.921C15.6644 221 13.463 234.955 29.2899 235.397C59.2048 236.233 88.2909 221.997 118.281 224.549C130.93 225.626 138.979 234.16 146.137 243.855C162.727 266.327 173.308 294.474 175.463 322.366C176.628 337.435 174.516 352.929 155.422 352.52C127.181 351.916 95.3584 335.013 72.7742 320.068C44.9098 301.628 21.5482 278.387 9.98393 246.429C2.52052 225.805 2.00795 201.579 2.53735 179.962C3.03946 159.459 5.12791 139.075 9.43233 119.01C10.1559 115.637 12.2092 102.904 15.7757 99.6123C17.7708 97.7707 17.7421 104.732 18.074 107.427C20.464 126.827 25.8367 145.597 30.9447 164.425C41.5745 203.606 52.6167 242.674 66.0631 280.996C71.4737 296.417 76.7066 312.161 85.1852 326.227C87.2938 329.726 89.2897 340.836 90.885 337.075C94.5589 328.416 94.6198 311.252 96.2171 302.968C99.1545 287.735 101.664 276.655 106.698 262.15C106.859 261.685 111.315 246.944 115.891 245.418C123.93 242.738 133.292 279.093 135.564 284.49C137.467 289.009 135.694 274.682 135.564 269.78C135.203 256.162 134.614 242.489 135.289 228.87C136.003 214.449 140.837 214.555 147.332 227.032C149.559 231.311 150.873 243.853 153.767 239.994C156.508 236.34 154.962 224.765 155.79 220.137C157.383 211.234 161.271 216.652 164.615 221.791C164.977 222.347 166.737 227.656 167.649 225.009C169.873 218.559 171.136 211.645 172.889 205.06C174.463 199.15 175.465 189.183 181.347 197.889C183.13 200.527 188.886 215.424 188.886 211.035C188.886 167.182 174.346 123.222 163.88 81.1338C161.243 70.5311 158.587 59.9332 155.974 49.3249C153.787 40.4483 153.796 30.7543 149.538 22.6643C148.882 21.4169 149.485 25.4846 149.538 26.8932C150.088 41.3285 151.084 55.716 152.48 70.1018C155.437 100.566 159.782 130.685 166.454 160.564C167.263 164.185 169.607 179.228 173.073 183.639C174.142 184.999 175.335 180.835 175.647 179.134C177.629 168.336 178.825 157.444 181.531 146.774C182.605 142.541 182.7 137.756 187.691 141.166C201.783 150.796 214.015 162.373 228.785 171.228C235.366 175.174 263.783 194.858 273.096 183.179C275.479 180.191 275.817 175.948 276.222 172.147C277.996 155.51 277.09 138.677 276.59 121.952C275.687 91.7758 276.349 53.4446 255.537 28.64C238.287 8.08023 211.715 11.3463 190.724 23.5837C173.337 33.7201 152.394 54.1091 146.413 74.1468C138.906 99.2954 209.855 85.0988 216.833 84.6272C234.062 83.4631 276.466 74.5712 288.173 96.5785C292.199 104.147 292.798 113.161 293.781 121.676C297.371 152.757 295.452 186.03 292.402 216.827C287.391 267.42 278.174 318.065 262.432 366.494C254.209 391.792 249.781 380.303 260.869 357.025C296.619 281.972 360.217 220.311 422.212 166.999C490.355 108.399 565.703 57.3846 643.219 12.092C648.315 9.11423 663.679 -5.31871 663.444 7.95503C663.296 16.3448 660.679 24.1659 658.848 32.2254" stroke="black" stroke-width="3" stroke-linecap="round"/>
</svg>
