<svg width="133" height="16" viewBox="0 0 133 16" fill="none" xmlns="http://www.w3.org/2000/svg">
<path d="M17.68 1.56C17.0267 1.56 16.56 1.68 16.28 1.92C16.0667 2.10667 15.9133 2.4 15.82 2.8L12.32 15.1H11.84C11.36 13.4067 10.88 11.7333 10.4 10.08C9.92 8.42667 9.44 6.74667 8.96 5.04C8.46667 6.74667 7.97333 8.42667 7.48 10.08C7 11.7333 6.51333 13.4067 6.02 15.1H5.52L1.98 2.38C1.9 2.08667 1.76 1.88667 1.56 1.78C1.29333 1.63333 0.84 1.56 0.2 1.56V0.919999H5.22V1.56C4.75333 1.56 4.37333 1.57333 4.08 1.6C3.8 1.62667 3.61333 1.68 3.52 1.76C3.44 1.82667 3.39333 1.92667 3.38 2.06C3.38 2.18 3.39333 2.3 3.42 2.42L6.06 12.12C6.47333 10.6667 6.88 9.22 7.28 7.78C7.69333 6.34 8.10667 4.89333 8.52 3.44L8.26 2.38C8.22 2.23333 8.16 2.10667 8.08 2C8 1.89333 7.91333 1.81333 7.82 1.76C7.60667 1.62667 7.15333 1.56 6.46 1.56V0.919999H11.52V1.56C11.0267 1.56 10.64 1.57333 10.36 1.6C10.08 1.62667 9.89333 1.68 9.8 1.76C9.72 1.82667 9.66 1.91333 9.62 2.02C9.59333 2.11333 9.60667 2.24667 9.66 2.42L12.36 12.16L15.02 2.68C15.06 2.52 15.0867 2.36667 15.1 2.22C15.1133 2.06 15.0667 1.92667 14.96 1.82C14.7867 1.64667 14.2467 1.56 13.34 1.56V0.919999H17.68V1.56ZM21.5692 1.64C21.5692 1.96 21.4626 2.22667 21.2492 2.44C21.0359 2.65333 20.7692 2.76 20.4492 2.76C20.1559 2.76 19.9092 2.65333 19.7092 2.44C19.5226 2.22667 19.4292 1.96 19.4292 1.64C19.4292 1.32 19.5292 1.05333 19.7292 0.839999C19.9292 0.626666 20.1692 0.52 20.4492 0.52C20.7692 0.52 21.0359 0.626666 21.2492 0.839999C21.4626 1.05333 21.5692 1.32 21.5692 1.64ZM22.5092 14.88H18.7692V14.22C19.3159 14.22 19.6692 14.14 19.8292 13.98C19.9626 13.86 20.0292 13.64 20.0292 13.32V7.56C20.0292 7.26667 19.9692 7.06667 19.8492 6.96C19.7026 6.84 19.3492 6.78 18.7892 6.78L18.7092 6.34L21.2492 5.38V13.32C21.2492 13.6933 21.3092 13.9267 21.4292 14.02C21.6026 14.1533 21.9626 14.22 22.5092 14.22V14.88ZM29.0883 12.9C29.1549 12.9533 29.2149 13 29.2683 13.04C29.3349 13.08 29.4016 13.12 29.4683 13.16C29.2283 13.72 28.9016 14.1867 28.4883 14.56C28.0216 15 27.5149 15.22 26.9683 15.22C26.2483 15.22 25.7016 14.96 25.3283 14.44C25.2216 14.2533 25.1349 14.04 25.0683 13.8C25.0016 13.56 24.9683 13.2933 24.9683 13V6.38H23.4083V5.74C24.1283 5.74 24.6616 5.46667 25.0083 4.92C25.3949 4.29333 25.5883 3.4 25.5883 2.24H26.1883V5.6H28.8083V6.38H26.1883V13.14C26.1883 13.8467 26.5616 14.2 27.3083 14.2C27.9083 14.2 28.5016 13.7667 29.0883 12.9ZM40.1237 14.86H36.1638V14.2C36.7104 14.2 37.0971 14.1267 37.3238 13.98C37.4838 13.8467 37.5638 13.6067 37.5638 13.26V8.28C37.5638 7.08 36.9171 6.48 35.6238 6.48C34.7038 6.48 33.7571 6.86667 32.7837 7.64V13.26C32.7837 13.6067 32.8704 13.8467 33.0438 13.98C33.2704 14.1267 33.6438 14.2 34.1638 14.2V14.86H30.2438V14.2C30.7504 14.2 31.1171 14.1267 31.3438 13.98C31.4904 13.8333 31.5638 13.5933 31.5638 13.26V3.04C31.5638 2.66667 31.4971 2.42 31.3638 2.3C31.2171 2.16667 30.8638 2.1 30.3038 2.1C30.2904 2.03333 30.2771 1.97333 30.2638 1.92C30.2638 1.85333 30.2571 1.78667 30.2438 1.72C30.6704 1.54667 31.0904 1.38 31.5038 1.22C31.9304 1.04667 32.3571 0.873333 32.7837 0.7V6.78C33.9304 5.87333 35.0304 5.42 36.0838 5.42C36.9638 5.42 37.6371 5.64667 38.1038 6.1C38.5571 6.56667 38.7838 7.22667 38.7838 8.08V13.26C38.7838 13.62 38.8571 13.86 39.0038 13.98C39.2704 14.1267 39.6438 14.2 40.1237 14.2V14.86ZM50.4106 14.76C49.864 14.76 49.4106 14.78 49.0506 14.82C48.944 14.8333 48.7906 14.8533 48.5906 14.88C48.404 14.9067 48.1773 14.9333 47.9106 14.96C47.8973 14.8533 47.884 14.7467 47.8706 14.64C47.8706 14.5333 47.864 14.4267 47.8506 14.32C47.224 14.9067 46.3373 15.2 45.1906 15.2C44.044 15.2 43.0906 14.8 42.3306 14C41.4906 13.12 41.0706 11.8933 41.0706 10.32C41.0706 8.86667 41.4773 7.67333 42.2906 6.74C43.064 5.84667 44.0306 5.4 45.1906 5.4C46.2573 5.4 47.144 5.66 47.8506 6.18V2.98C47.8506 2.7 47.764 2.49333 47.5906 2.36C47.4173 2.22667 47.0173 2.16 46.3906 2.16C46.364 2.09333 46.344 2.02 46.3306 1.94C46.3306 1.86 46.3173 1.78667 46.2906 1.72C46.7573 1.56 47.2173 1.4 47.6706 1.24C48.1373 1.06667 48.604 0.893333 49.0706 0.719999V13.14C49.0706 13.4467 49.144 13.66 49.2906 13.78C49.5306 14.0867 49.904 14.24 50.4106 14.24V14.76ZM47.8506 7.16C47.2506 6.53333 46.5106 6.22 45.6306 6.22C45.0573 6.22 44.544 6.35333 44.0906 6.62C43.6373 6.88667 43.2706 7.26667 42.9906 7.76C42.604 8.46667 42.4106 9.32667 42.4106 10.34C42.4106 11.5267 42.7173 12.4867 43.3306 13.22C43.944 13.98 44.7106 14.36 45.6306 14.36C46.5373 14.36 47.2773 14.0333 47.8506 13.38V7.16ZM58.6045 6.32C58.6045 7.01333 58.2979 7.36 57.6845 7.36C57.4312 7.36 57.1512 7.24667 56.8445 7.02C56.6179 6.83333 56.3712 6.74 56.1045 6.74C55.7579 6.74 55.3245 6.94 54.8045 7.34C54.3912 7.66 53.9912 8.02667 53.6045 8.44V13.28C53.6045 13.6533 53.6712 13.9 53.8045 14.02C53.9512 14.1533 54.3179 14.22 54.9045 14.22V14.86H51.1045V14.22C51.4512 14.22 51.7179 14.1933 51.9045 14.14C52.0912 14.0867 52.2179 14.0067 52.2845 13.9C52.3512 13.7933 52.3845 13.6267 52.3845 13.4V7.56C52.3845 7.29333 52.3379 7.11333 52.2445 7.02C52.1912 6.96667 52.0779 6.90667 51.9045 6.84C51.7179 6.8 51.4912 6.78 51.2245 6.78C51.1979 6.71333 51.1779 6.64667 51.1645 6.58C51.1512 6.51333 51.1312 6.44667 51.1045 6.38C51.5312 6.20667 51.9512 6.04 52.3645 5.88C52.7779 5.70667 53.1912 5.53333 53.6045 5.36V7.42C53.9245 7.11333 54.2445 6.83333 54.5645 6.58C54.8845 6.32667 55.1979 6.11333 55.5045 5.94C56.1712 5.55333 56.8179 5.36 57.4445 5.36C58.2179 5.36 58.6045 5.68 58.6045 6.32ZM61.1253 6.02C61.9253 5.64667 62.8453 5.46 63.8853 5.46C64.7253 5.46 65.4053 5.68 65.9253 6.12C66.4853 6.62667 66.7653 7.33333 66.7653 8.24V13.42C66.7653 13.4867 66.7653 13.5667 66.7653 13.66C66.7786 13.7533 66.792 13.8467 66.8053 13.94C66.832 14.0333 66.8653 14.1133 66.9053 14.18C66.9586 14.2467 67.0186 14.28 67.0853 14.28C67.2853 14.28 67.572 14.1333 67.9453 13.84L68.1853 14.14C67.5986 14.8467 67.0786 15.2 66.6253 15.2C66.0386 15.2 65.6853 14.8267 65.5653 14.08C64.7386 14.8267 63.6853 15.2 62.4053 15.2C61.9653 15.2 61.5653 15.1533 61.2053 15.06C60.8586 14.9667 60.5653 14.82 60.3253 14.62C59.832 14.2067 59.5853 13.6267 59.5853 12.88C59.5853 12.32 59.772 11.82 60.1453 11.38C60.532 10.9267 61.0253 10.5533 61.6253 10.26C62.652 9.72667 63.9586 9.36 65.5453 9.16V7.92C65.5453 7.4 65.3853 6.98 65.0653 6.66C64.8786 6.47333 64.6586 6.34 64.4053 6.26C64.1653 6.18 63.9053 6.14 63.6253 6.14C63.092 6.14 62.6386 6.24667 62.2653 6.46C62.0386 6.60667 61.8586 6.75333 61.7253 6.9C61.592 7.03333 61.5253 7.18667 61.5253 7.36V7.46C61.5253 8.11333 61.2386 8.44 60.6653 8.44C60.1453 8.44 59.8853 8.14 59.8853 7.54C59.8853 6.91333 60.2986 6.40667 61.1253 6.02ZM65.5453 9.92C64.372 10.04 63.2853 10.3733 62.2853 10.92C61.3786 11.4267 60.9253 12.0733 60.9253 12.86C60.9253 13.2867 61.0986 13.6333 61.4453 13.9C61.792 14.1533 62.2253 14.28 62.7453 14.28C63.2253 14.28 63.7253 14.1867 64.2453 14C64.672 13.8533 65.1053 13.6 65.5453 13.24V9.92ZM78.3375 15.14C77.9375 14.14 77.5308 13.1333 77.1175 12.12C76.7175 11.1067 76.3175 10.0933 75.9175 9.08C75.5308 10.0933 75.1442 11.1067 74.7575 12.12C74.3708 13.1333 73.9842 14.14 73.5975 15.14H73.1575C72.6242 13.7667 72.0908 12.4133 71.5575 11.08C71.0375 9.73333 70.5108 8.37333 69.9775 7C69.8842 6.70667 69.7508 6.51333 69.5775 6.42C69.3508 6.3 69.0175 6.24 68.5775 6.24V5.6H72.5375V6.24C72.0042 6.24 71.6442 6.27333 71.4575 6.34C71.2842 6.39333 71.1975 6.47333 71.1975 6.58C71.1975 6.63333 71.2175 6.7 71.2575 6.78C71.3242 6.91333 71.3775 7.04667 71.4175 7.18C71.4708 7.3 71.5308 7.42667 71.5975 7.56C71.9442 8.45333 72.2842 9.34 72.6175 10.22C72.9508 11.0867 73.2842 11.9667 73.6175 12.86C73.9375 12.02 74.2508 11.2067 74.5575 10.42C74.8642 9.62 75.1775 8.8 75.4975 7.96C75.4308 7.81333 75.3642 7.66667 75.2975 7.52C75.2442 7.37333 75.1842 7.22667 75.1175 7.08C74.9842 6.70667 74.8308 6.47333 74.6575 6.38C74.5108 6.3 74.2308 6.26 73.8175 6.26V5.6H77.7175V6.24C77.0108 6.24 76.5642 6.31333 76.3775 6.46C76.3108 6.52667 76.2775 6.6 76.2775 6.68C76.2775 6.69333 76.2908 6.75333 76.3175 6.86L78.7775 12.98C79.1375 11.9667 79.4908 10.9533 79.8375 9.94C80.1975 8.92667 80.5575 7.91333 80.9175 6.9C80.9442 6.79333 80.9575 6.72667 80.9575 6.7C80.9575 6.62 80.9308 6.54667 80.8775 6.48C80.7308 6.32 80.3308 6.24 79.6775 6.24V5.6H83.1375V6.24C82.6042 6.24 82.2375 6.3 82.0375 6.42C81.8908 6.51333 81.7642 6.69333 81.6575 6.96C81.1908 8.33333 80.7175 9.7 80.2375 11.06C79.7708 12.4067 79.3042 13.7667 78.8375 15.14H78.3375ZM101.447 7.88C101.447 10.04 100.847 11.76 99.6467 13.04C98.4467 14.2533 96.8667 14.86 94.9067 14.86H89.3467V14.2C90.0001 14.2 90.4601 14.1 90.7267 13.9C90.9534 13.7 91.0667 13.3867 91.0667 12.96V2.74C91.0667 2.34 90.9467 2.04667 90.7067 1.86C90.4401 1.67333 89.9867 1.58 89.3467 1.58V0.919999H94.9067C96.9601 0.919999 98.5601 1.53333 99.7067 2.76C100.867 4 101.447 5.70667 101.447 7.88ZM100.047 7.88C100.047 5.93333 99.5801 4.39333 98.6467 3.26C97.7401 2.22 96.5467 1.68 95.0667 1.64C95.0134 1.62667 94.9601 1.62 94.9067 1.62C94.8534 1.62 94.7934 1.62 94.7267 1.62H94.0267C93.9734 1.62 93.9201 1.62 93.8667 1.62C93.8134 1.62 93.7601 1.62667 93.7067 1.64C93.1867 1.64 92.8267 1.72667 92.6267 1.9C92.4401 2.06 92.3467 2.27333 92.3467 2.54V12.94C92.3467 13.34 92.4401 13.6533 92.6267 13.88C92.6801 13.9333 92.7401 13.9733 92.8067 14C92.8867 14.0133 92.9734 14.0333 93.0667 14.06C93.1601 14.0867 93.2601 14.1067 93.3667 14.12C93.4734 14.1333 93.5867 14.1467 93.7067 14.16H94.7267C94.7934 14.16 94.8534 14.16 94.9067 14.16C94.9601 14.16 95.0134 14.1533 95.0667 14.14C96.5467 14.1133 97.7334 13.5733 98.6267 12.52C99.5734 11.3733 100.047 9.82667 100.047 7.88ZM111.684 10.32C111.684 11.8133 111.258 13.0067 110.404 13.9C109.591 14.7933 108.551 15.24 107.284 15.24C106.004 15.24 104.958 14.7933 104.144 13.9C103.291 13.0067 102.864 11.8133 102.864 10.32C102.864 8.82667 103.291 7.63333 104.144 6.74C104.958 5.84667 106.004 5.4 107.284 5.4C108.551 5.4 109.591 5.84667 110.404 6.74C111.258 7.63333 111.684 8.82667 111.684 10.32ZM110.324 10.32C110.324 9.09333 110.031 8.08667 109.444 7.3C108.898 6.51333 108.178 6.12 107.284 6.12C106.404 6.12 105.671 6.51333 105.084 7.3C104.511 8.08667 104.224 9.09333 104.224 10.32C104.224 11.5333 104.504 12.54 105.064 13.34C105.638 14.1133 106.378 14.5 107.284 14.5C108.151 14.5 108.871 14.1133 109.444 13.34C110.031 12.5533 110.324 11.5467 110.324 10.32ZM122.407 14.86H118.507V14.22C118.973 14.22 119.3 14.16 119.487 14.04C119.713 13.8933 119.827 13.6067 119.827 13.18V8.16C119.827 7.04 119.3 6.48 118.247 6.48C117.62 6.48 117.093 6.58667 116.667 6.8C116.48 6.89333 116.26 7.02 116.007 7.18C115.753 7.32667 115.473 7.50667 115.167 7.72V13.18C115.167 13.58 115.253 13.8467 115.427 13.98C115.533 14.0467 115.68 14.1 115.867 14.14C116.053 14.1933 116.28 14.22 116.547 14.22V14.86H112.647V14.22C113.153 14.22 113.52 14.14 113.747 13.98C113.88 13.8467 113.947 13.58 113.947 13.18V7.66C113.947 7.3 113.88 7.07333 113.747 6.98C113.56 6.83333 113.22 6.76 112.727 6.76C112.7 6.69333 112.68 6.62 112.667 6.54C112.667 6.46 112.653 6.38667 112.627 6.32C113.053 6.17333 113.473 6.02667 113.887 5.88C114.313 5.73333 114.74 5.58667 115.167 5.44V6.86C116.3 5.92667 117.453 5.46 118.627 5.46C119.44 5.46 120.047 5.69333 120.447 6.16C120.847 6.64 121.047 7.32 121.047 8.2V13.16C121.047 13.5733 121.127 13.8467 121.287 13.98C121.393 14.0467 121.54 14.1 121.727 14.14C121.913 14.1933 122.14 14.22 122.407 14.22V14.86ZM131.654 12.46C131.721 12.5133 131.787 12.5667 131.854 12.62C131.934 12.6733 132.007 12.7267 132.074 12.78C131.754 13.26 131.401 13.66 131.014 13.98C130.627 14.3 130.214 14.5667 129.774 14.78C129.174 15.0733 128.527 15.22 127.834 15.22C126.514 15.22 125.434 14.8 124.594 13.96C123.701 13.0667 123.254 11.86 123.254 10.34C123.254 8.87333 123.681 7.69333 124.534 6.8C125.374 5.88 126.441 5.42 127.734 5.42C129.027 5.42 130.047 5.79333 130.794 6.54C131.594 7.3 131.994 8.4 131.994 9.84C130.754 9.88 129.534 9.92667 128.334 9.98C127.134 10.02 125.907 10.06 124.654 10.1C124.654 10.1533 124.647 10.2067 124.634 10.26C124.634 10.3 124.634 10.3467 124.634 10.4C124.634 10.96 124.707 11.4667 124.854 11.92C125.014 12.3733 125.241 12.78 125.534 13.14C126.147 13.94 127.007 14.34 128.114 14.34C128.701 14.34 129.314 14.1867 129.954 13.88C130.247 13.7067 130.534 13.5067 130.814 13.28C131.107 13.04 131.387 12.7667 131.654 12.46ZM124.694 9.34C125.694 9.31333 126.681 9.28 127.654 9.24C128.627 9.2 129.614 9.16667 130.614 9.14C130.601 8.26 130.327 7.55333 129.794 7.02C129.247 6.43333 128.561 6.14 127.734 6.14C126.934 6.14 126.234 6.46 125.634 7.1C125.074 7.68667 124.761 8.43333 124.694 9.34Z" fill="black"/>
</svg>
