<svg width="38" height="38" viewBox="0 0 38 38" fill="none" xmlns="http://www.w3.org/2000/svg">
<path d="M33.7113 11.5615C33.5378 10.9081 33.1957 10.3118 32.7192 9.83228C32.2427 9.35275 31.6486 9.00683 30.9964 8.82917C28.6019 8.18317 19 8.18317 19 8.18317C19 8.18317 9.39814 8.18317 7.00361 8.82917C6.35137 9.00683 5.75727 9.35275 5.28079 9.83228C4.80432 10.3118 4.46221 10.9081 4.28872 11.5615C3.64694 13.9713 3.64694 19 3.64694 19C3.64694 19 3.64694 24.0286 4.28872 26.439C4.46221 27.0924 4.80432 27.6887 5.28079 28.1682C5.75727 28.6477 6.35137 28.9936 7.00361 29.1713C9.39814 29.8168 19 29.8168 19 29.8168C19 29.8168 28.6019 29.8168 30.9964 29.1713C31.6486 28.9936 32.2427 28.6477 32.7192 28.1682C33.1957 27.6887 33.5378 27.0924 33.7113 26.439C34.3531 24.0286 34.3531 19 34.3531 19C34.3531 19 34.3531 13.9713 33.7113 11.5615Z" fill="#EA5A47"/>
<path d="M15.8597 23.5652L23.8851 19L15.8597 14.4347V23.5652Z" fill="white"/>
<path d="M33.7113 11.5615C33.5378 10.9081 33.1957 10.3118 32.7192 9.83228C32.2427 9.35275 31.6486 9.00683 30.9964 8.82917C28.6019 8.18317 19 8.18317 19 8.18317C19 8.18317 9.39814 8.18317 7.00361 8.82917C6.35137 9.00683 5.75727 9.35275 5.28079 9.83228C4.80432 10.3118 4.46221 10.9081 4.28872 11.5615C3.64694 13.9713 3.64694 19 3.64694 19C3.64694 19 3.64694 24.0286 4.28872 26.439C4.46221 27.0924 4.80432 27.6887 5.28079 28.1682C5.75727 28.6477 6.35137 28.9936 7.00361 29.1713C9.39814 29.8168 19 29.8168 19 29.8168C19 29.8168 28.6019 29.8168 30.9964 29.1713C31.6486 28.9936 32.2427 28.6477 32.7192 28.1682C33.1957 27.6887 33.5378 27.0924 33.7113 26.439C34.3531 24.0286 34.3531 19 34.3531 19C34.3531 19 34.3531 13.9713 33.7113 11.5615Z" stroke="white" stroke-width="2" stroke-miterlimit="10"/>
<path d="M15.8597 23.5652L23.8851 19L15.8597 14.4347V23.5652Z" stroke="white" stroke-width="2" stroke-miterlimit="10" stroke-linecap="round" stroke-linejoin="round"/>
</svg>
